<?xml version="1.0" standalone="no"?>
<!DOCTYPE svg PUBLIC "-//W3C//DTD SVG 20010904//EN"
 "http://www.w3.org/TR/2001/REC-SVG-20010904/DTD/svg10.dtd">
<svg version="1.0" xmlns="http://www.w3.org/2000/svg"
 width="1023.000000pt" height="1023.000000pt" viewBox="0 0 1023.000000 1023.000000"
 preserveAspectRatio="xMidYMid meet">
<metadata>
Created by potrace 1.11, written by Peter Selinger 2001-2013
</metadata>
<g transform="translate(0.000000,1023.000000) scale(0.100000,-0.100000)"
fill="#000000" stroke="none">
<path d="M4856 10223 c-4 -4 -31 -9 -59 -10 -88 -5 -172 -11 -172 -13 0 -1
-20 -3 -45 -4 -25 -1 -50 -5 -55 -7 -6 -3 -28 -7 -49 -8 -21 -1 -48 -7 -59
-12 -14 -8 -18 -8 -13 0 10 16 0 13 -18 -5 -9 -8 -16 -11 -16 -6 0 5 -12 7
-27 5 -49 -8 -68 -11 -68 -13 0 -2 -9 -4 -20 -5 -54 -8 -102 -17 -120 -22 -11
-4 -24 -7 -30 -8 -25 -3 -91 -18 -100 -23 -5 -3 -17 -7 -26 -7 -17 -1 -104
-23 -129 -33 -8 -3 -19 -6 -25 -7 -5 -1 -12 -3 -15 -4 -3 -2 -12 -4 -20 -6
-57 -12 -116 -31 -121 -38 -3 -5 -9 -8 -13 -7 -15 4 -106 -25 -106 -34 0 -5
-3 -7 -6 -4 -3 3 -29 -3 -57 -14 -29 -11 -56 -21 -62 -22 -17 -5 -49 -18 -85
-34 -19 -9 -41 -15 -47 -14 -7 2 -13 -2 -13 -8 0 -5 -3 -9 -7 -8 -5 1 -17 -3
-28 -9 -11 -6 -23 -11 -28 -12 -14 -1 -82 -35 -88 -44 -3 -5 -9 -8 -13 -8 -15
3 -56 -12 -56 -20 0 -5 -3 -8 -7 -7 -12 2 -101 -41 -108 -52 -4 -6 -10 -8 -15
-5 -5 3 -16 -2 -24 -11 -9 -8 -16 -13 -16 -10 0 5 -58 -26 -120 -65 -8 -5 -25
-13 -37 -18 -11 -6 -24 -15 -28 -21 -3 -5 -11 -8 -16 -5 -5 4 -9 2 -9 -3 0 -5
-13 -15 -30 -22 -16 -7 -30 -17 -30 -22 0 -5 -4 -7 -8 -4 -5 3 -18 -2 -28 -12
-10 -9 -31 -23 -46 -31 -16 -8 -28 -18 -28 -23 0 -4 -5 -8 -11 -8 -12 0 -141
-88 -151 -104 -4 -6 -8 -7 -8 -3 0 5 -13 -2 -29 -15 -16 -12 -42 -33 -57 -45
-169 -129 -201 -155 -286 -236 -21 -19 -38 -34 -38 -32 0 1 -22 -19 -50 -46
-27 -27 -50 -46 -50 -42 0 3 -13 -10 -29 -30 -15 -20 -31 -34 -35 -30 -3 3 -6
-2 -6 -12 0 -10 -3 -15 -6 -12 -4 4 -20 -10 -35 -30 -16 -20 -29 -32 -29 -28
0 4 -9 -3 -19 -16 -11 -13 -51 -58 -90 -99 -39 -41 -71 -78 -71 -82 0 -3 -12
-20 -28 -36 -78 -83 -92 -100 -92 -109 0 -6 -7 -14 -16 -17 -8 -3 -13 -10 -9
-15 3 -6 -1 -14 -9 -18 -9 -5 -33 -33 -55 -63 -22 -30 -44 -59 -49 -65 -4 -5
-28 -39 -52 -75 -24 -36 -47 -67 -51 -70 -4 -3 -9 -12 -11 -20 -2 -8 -13 -25
-25 -39 -12 -14 -20 -28 -18 -32 3 -4 -2 -9 -10 -13 -8 -3 -15 -10 -15 -16 0
-5 -19 -40 -43 -77 -23 -38 -49 -81 -57 -98 -8 -16 -21 -36 -27 -43 -7 -7 -13
-17 -13 -22 0 -5 -13 -31 -29 -59 -16 -27 -27 -52 -24 -55 4 -3 1 -6 -5 -6 -7
0 -12 -12 -12 -26 0 -14 -4 -23 -10 -19 -5 3 -10 0 -10 -7 0 -7 -14 -40 -30
-73 -17 -33 -30 -65 -30 -72 0 -7 -4 -13 -10 -13 -5 0 -13 -15 -18 -32 -6 -18
-22 -59 -36 -90 -14 -32 -23 -58 -21 -58 3 0 -1 -10 -10 -23 -8 -13 -12 -27
-8 -30 3 -4 1 -7 -5 -7 -6 0 -14 -15 -17 -32 -4 -18 -10 -37 -13 -43 -4 -5 -7
-17 -9 -25 -1 -8 -6 -23 -11 -35 -23 -47 -41 -103 -35 -109 4 -3 1 -6 -6 -6
-7 0 -10 -4 -6 -9 3 -5 1 -20 -4 -33 -19 -46 -24 -63 -28 -88 -2 -14 -10 -37
-17 -51 -7 -14 -12 -33 -10 -42 1 -9 -2 -17 -6 -17 -5 0 -7 -9 -5 -20 2 -11
-1 -20 -6 -20 -6 0 -8 -4 -5 -9 4 -5 1 -22 -5 -38 -6 -15 -12 -39 -14 -53 -2
-14 -11 -56 -21 -95 -9 -38 -18 -83 -19 -100 -2 -16 -4 -32 -5 -35 -1 -3 -2
-9 -1 -14 1 -4 -2 -13 -7 -20 -5 -6 -8 -28 -7 -48 1 -21 -1 -38 -4 -38 -6 0
-11 -37 -14 -97 -1 -18 -4 -33 -7 -33 -3 0 -5 -11 -5 -25 0 -14 5 -25 10 -25
6 0 4 -4 -2 -8 -13 -8 -24 -100 -23 -175 1 -22 -4 -45 -10 -52 -7 -9 -9 -105
-6 -306 5 -305 8 -378 18 -394 3 -6 5 -34 4 -63 0 -30 2 -56 6 -58 4 -3 6 -20
4 -40 -1 -19 1 -37 5 -40 4 -2 6 -19 5 -37 -2 -17 -1 -36 3 -42 6 -11 8 -21
15 -75 3 -19 6 -35 7 -35 1 0 2 -14 3 -30 1 -17 6 -37 11 -44 4 -8 9 -30 11
-50 1 -20 8 -58 14 -86 6 -27 12 -57 13 -65 1 -8 6 -21 10 -27 5 -7 6 -13 3
-13 -2 0 0 -15 5 -32 10 -31 13 -44 23 -93 2 -11 11 -40 19 -65 22 -70 38
-124 41 -140 2 -8 6 -24 10 -35 32 -85 38 -101 38 -105 0 -3 6 -20 14 -39 8
-19 17 -46 21 -60 3 -14 10 -32 16 -38 5 -7 7 -13 3 -13 -4 0 0 -10 8 -22 8
-13 16 -26 16 -30 6 -31 14 -48 21 -48 5 0 8 -3 7 -8 -5 -14 51 -144 65 -150
4 -2 4 -8 1 -13 -3 -6 2 -19 13 -31 10 -11 17 -22 15 -24 -3 -5 90 -193 126
-257 12 -20 31 -52 41 -71 11 -19 31 -53 45 -75 15 -22 26 -45 26 -51 0 -5 5
-10 10 -10 6 0 10 -4 10 -9 0 -13 110 -175 121 -179 5 -2 7 -8 3 -13 -3 -5 0
-9 5 -9 6 0 11 -5 11 -11 0 -11 58 -93 95 -133 11 -12 28 -34 38 -50 22 -33
53 -71 90 -109 15 -16 27 -32 27 -35 0 -4 27 -36 60 -72 33 -35 60 -67 60 -71
0 -4 9 -11 20 -14 11 -3 20 -13 20 -21 0 -8 5 -14 10 -14 6 0 10 -6 10 -14 0
-8 4 -16 9 -18 5 -1 77 -68 160 -147 82 -79 161 -151 175 -161 15 -9 23 -20
19 -23 -3 -4 -1 -7 5 -7 12 0 50 -30 99 -77 13 -12 23 -20 23 -17 0 3 21 -12
48 -33 88 -73 212 -164 212 -156 0 4 5 0 11 -9 5 -10 14 -18 20 -18 5 0 22
-11 37 -25 15 -14 35 -25 45 -25 10 0 15 -5 12 -10 -3 -5 -2 -10 4 -10 6 0 38
-18 72 -40 34 -22 68 -40 76 -40 7 0 13 -5 13 -10 0 -6 8 -14 18 -17 9 -4 41
-22 71 -39 30 -18 58 -31 63 -28 4 3 8 1 8 -3 0 -5 17 -17 38 -28 20 -11 40
-24 44 -30 4 -5 8 -7 8 -3 0 4 34 -11 75 -33 41 -23 75 -37 75 -32 0 4 4 3 8
-3 6 -9 34 -23 115 -58 17 -8 58 -26 89 -40 31 -14 63 -26 70 -26 8 0 24 -7
36 -16 12 -8 22 -12 22 -8 0 3 7 1 15 -6 8 -7 22 -10 30 -6 9 3 14 2 11 -3 -5
-8 58 -31 88 -31 9 0 16 -3 16 -7 0 -5 11 -13 25 -20 19 -8 23 -8 18 0 -4 7 1
5 11 -3 11 -8 14 -16 7 -18 -6 -2 -8 -9 -5 -14 4 -6 2 -8 -4 -4 -6 3 -13 2
-17 -4 -4 -6 -11 -8 -16 -4 -6 3 -13 -3 -16 -15 -3 -12 -8 -21 -12 -22 -3 0
-34 -2 -69 -5 -38 -2 -69 -10 -78 -19 -9 -8 -24 -16 -35 -16 -30 -2 -32 -3
-71 -26 -26 -15 -38 -30 -39 -45 0 -13 -1 -42 -2 -66 -2 -25 3 -48 10 -54 7
-6 13 -7 13 -2 0 5 7 -1 15 -13 15 -22 65 -37 65 -20 0 5 7 4 15 -3 8 -7 15
-9 15 -4 0 4 5 3 12 -4 7 -7 22 -12 34 -12 13 0 30 -7 39 -16 15 -15 103 -45
135 -46 8 0 39 -7 68 -15 30 -8 67 -13 83 -11 16 3 30 0 32 -5 1 -5 30 -10 62
-11 33 0 67 -5 75 -10 8 -6 26 -10 40 -10 14 -1 31 -5 39 -10 7 -5 46 -10 85
-12 100 -4 159 -13 170 -24 5 -5 20 -3 37 6 16 8 29 11 29 7 0 -5 33 -7 74 -6
59 2 75 0 80 -13 3 -8 11 -12 18 -8 8 5 9 0 6 -14 -6 -23 2 -22 34 6 12 10 36
14 70 13 57 -1 123 -7 123 -11 0 -1 12 -3 28 -4 15 -2 27 0 27 4 0 7 18 7 153
-3 26 -2 47 1 47 6 0 4 5 5 12 1 16 -10 148 -11 148 -1 0 4 8 4 18 -1 9 -4 35
-6 57 -5 100 9 141 10 150 4 14 -8 55 -9 55 -1 0 3 55 6 121 7 67 0 124 5 128
10 3 5 60 10 126 12 165 4 185 5 185 12 0 3 37 6 81 6 45 1 85 6 88 11 3 5 21
9 38 8 18 -1 35 4 37 11 3 7 26 11 62 9 31 -1 62 3 68 9 6 5 29 11 51 11 54 2
85 7 85 14 0 4 16 6 35 5 20 0 37 5 39 12 7 18 30 16 71 -7 l36 -20 -3 27 c-3
28 -2 28 74 63 15 7 38 11 51 8 16 -3 37 4 62 24 37 27 38 30 39 93 1 46 -3
65 -11 65 -7 0 -13 4 -13 8 0 12 -51 36 -72 35 -10 0 -18 4 -18 8 0 5 -8 9
-17 9 -10 0 -26 7 -36 14 -10 8 -27 12 -38 9 -10 -3 -26 0 -34 7 -8 6 -18 9
-23 6 -5 -3 -20 2 -33 12 -13 9 -33 17 -44 18 -12 0 -30 6 -40 12 -18 10 -17
11 10 18 17 4 35 11 41 15 6 5 19 10 30 12 10 2 29 9 42 15 12 7 22 10 22 6 0
-3 7 -1 15 6 8 7 15 9 15 6 0 -4 10 0 22 8 12 9 28 16 34 16 6 0 29 8 50 17
22 9 41 17 44 18 29 4 118 50 113 58 -4 6 -1 7 6 2 13 -8 78 17 121 46 14 9
30 17 35 18 29 5 55 14 55 20 0 4 20 15 45 26 25 11 45 24 45 28 0 5 5 5 10 2
6 -3 10 -1 10 6 0 7 3 10 6 6 3 -3 25 6 47 19 23 14 61 34 85 45 23 11 42 24
42 29 0 6 3 9 8 8 6 -2 52 23 137 75 53 32 211 142 217 152 4 5 8 6 8 2 0 -4
15 6 33 22 17 17 37 31 42 31 9 0 44 28 108 84 9 9 20 16 25 16 4 1 25 19 47
40 22 22 45 40 53 40 7 0 10 5 7 10 -3 6 -2 10 4 10 11 0 86 66 169 147 28 28
52 49 52 45 0 -4 4 -1 8 5 5 7 57 63 116 125 156 163 156 163 156 178 0 7 3
10 7 7 3 -4 16 7 28 23 12 16 25 27 28 23 4 -3 7 0 7 9 0 8 11 25 25 38 14 13
25 29 25 37 0 7 4 13 9 13 11 0 140 168 142 185 1 6 10 16 20 23 11 7 19 20
19 28 0 8 4 14 9 14 5 0 12 8 15 18 3 9 17 29 31 44 14 15 24 29 23 30 -2 2
17 34 42 72 25 38 54 85 65 105 11 20 23 38 26 41 3 3 12 19 21 35 24 47 70
129 81 143 5 6 6 12 1 12 -5 0 -4 4 1 8 10 7 58 100 59 114 1 4 7 13 14 20 6
6 12 20 12 30 0 10 4 18 10 18 5 0 13 12 17 28 3 15 17 47 29 72 12 25 24 52
26 60 2 8 6 17 10 20 4 3 9 15 11 25 2 11 13 40 24 65 11 25 26 63 34 85 8 22
19 51 26 64 7 14 10 28 7 33 -3 4 -1 8 4 8 5 0 9 6 10 13 2 24 8 47 15 53 4 4
7 13 7 20 0 7 5 25 12 41 6 15 12 33 12 38 1 6 10 37 20 70 10 33 20 67 21 75
1 8 7 28 13 43 7 15 11 31 11 35 -1 4 -1 9 1 12 3 9 10 45 13 65 1 11 5 22 8
25 4 3 9 23 12 45 3 22 9 60 15 85 10 42 20 99 27 145 1 11 4 20 5 20 1 0 3
14 5 30 1 17 3 30 4 30 1 0 4 16 6 35 15 132 23 182 30 188 2 3 0 11 -6 19 -6
7 -8 13 -3 13 5 0 9 15 10 33 3 81 8 129 16 133 11 7 10 584 0 584 -5 0 -10
26 -11 58 -2 75 -8 157 -11 157 -2 0 -4 16 -6 35 -4 56 -13 135 -15 135 -1 0
-3 11 -5 25 -10 78 -13 95 -15 95 -1 0 -3 14 -4 30 -2 17 -3 34 -4 38 -1 5 -7
5 -13 1 -9 -6 -9 -3 0 9 8 9 10 22 6 29 -4 7 -9 21 -11 33 -4 34 -8 50 -14 60
-3 6 -6 26 -8 45 -1 19 -5 37 -9 40 -7 5 -11 25 -14 73 0 15 -5 30 -10 33 -4
3 -8 16 -8 30 0 13 -3 24 -7 24 -5 0 -9 14 -10 32 -1 17 -6 34 -11 37 -4 3 -8
15 -9 26 0 11 -5 33 -11 48 -7 16 -12 39 -12 51 0 13 -6 29 -14 35 -8 7 -13
21 -11 32 2 10 -1 19 -7 19 -6 0 -9 3 -6 6 4 3 0 21 -8 40 -8 19 -12 34 -9 34
4 0 -1 10 -9 22 -9 12 -16 31 -16 41 0 11 -4 15 -12 11 -6 -4 -8 -3 -4 4 6 11
-9 58 -45 139 -10 24 -19 47 -19 53 0 5 -4 10 -10 10 -5 0 -9 3 -8 8 4 11 -46
132 -54 132 -5 0 -8 9 -8 20 0 11 -5 20 -11 20 -5 0 -8 4 -5 9 3 5 -3 20 -14
32 -11 13 -19 18 -20 12 0 -7 5 -13 11 -13 5 0 8 -4 5 -9 -3 -4 3 -27 14 -49
11 -23 20 -46 20 -52 0 -5 5 -10 11 -10 5 0 7 -4 4 -10 -3 -5 -2 -10 4 -10 6
0 8 -6 5 -14 -3 -8 0 -17 5 -21 6 -3 9 -11 6 -16 -4 -5 -2 -9 3 -9 9 0 26 -55
23 -72 0 -5 4 -8 9 -8 5 0 9 -3 8 -7 -3 -13 25 -93 32 -93 3 0 7 -10 7 -22 2
-37 8 -53 27 -83 11 -17 13 -24 5 -19 -11 6 -12 5 -3 -7 6 -8 23 -61 38 -119
15 -58 30 -112 33 -120 3 -8 7 -22 7 -30 1 -8 5 -21 9 -27 5 -7 6 -13 4 -13
-3 0 -1 -17 4 -37 9 -36 13 -56 23 -113 3 -14 5 -25 6 -25 1 0 3 -11 6 -25 2
-14 9 -54 14 -89 6 -35 9 -66 6 -69 -3 -3 -1 -11 5 -19 6 -7 8 -13 3 -13 -5 0
-2 -5 6 -10 11 -7 11 -10 2 -10 -7 0 -11 -3 -8 -8 5 -9 18 -85 21 -128 1 -17
5 -36 9 -42 3 -5 1 -12 -6 -14 -7 -3 -8 -9 -2 -19 5 -8 10 -48 11 -89 4 -99
11 -168 18 -179 3 -5 1 -12 -3 -15 -5 -3 -7 -18 -5 -33 2 -16 4 -37 3 -48 -1
-11 -1 -30 -1 -42 0 -13 1 -29 1 -35 1 -49 -24 -384 -35 -468 -2 -19 -7 -61
-10 -94 -3 -32 -8 -63 -12 -69 -4 -6 -8 -25 -9 -42 -3 -47 -19 -133 -34 -184
-5 -19 -7 -38 -4 -42 3 -5 0 -9 -6 -9 -6 0 -9 -3 -6 -8 5 -8 -40 -187 -70
-282 -3 -8 -5 -16 -5 -17 0 -2 -7 -22 -15 -45 -17 -47 -25 -77 -26 -95 -1 -7
-5 -13 -10 -13 -4 0 -7 -3 -6 -7 2 -12 -14 -67 -24 -79 -5 -7 -10 -25 -11 -42
-1 -17 -4 -28 -6 -26 -5 5 -43 -76 -44 -93 0 -7 -4 -13 -8 -13 -5 0 -6 -7 -3
-15 4 -8 2 -15 -4 -15 -7 0 -20 -28 -22 -48 0 -1 -13 -29 -30 -62 -17 -33 -30
-62 -30 -65 0 -3 -7 -20 -17 -38 -9 -17 -16 -35 -15 -39 1 -5 -2 -8 -8 -8 -5
0 -10 -7 -10 -15 0 -8 -4 -15 -10 -15 -5 0 -10 -9 -10 -19 0 -11 -3 -21 -7
-23 -7 -3 -25 -34 -76 -133 -11 -22 -31 -54 -44 -72 -12 -17 -23 -34 -23 -38
0 -9 -154 -239 -162 -243 -5 -2 -8 -10 -8 -18 0 -9 -4 -12 -10 -9 -5 3 -10 0
-10 -8 0 -7 -8 -22 -17 -33 -10 -10 -31 -37 -47 -59 -17 -22 -35 -43 -40 -47
-7 -5 -7 -8 -1 -8 5 0 -1 -7 -13 -16 -12 -8 -22 -19 -22 -25 0 -5 -8 -17 -17
-27 -45 -48 -92 -102 -88 -102 3 0 -16 -19 -40 -41 -25 -23 -45 -45 -45 -49 0
-10 -129 -138 -134 -133 -2 3 -7 -5 -11 -16 -3 -12 -14 -21 -22 -21 -9 0 -13
-3 -10 -7 4 -3 -5 -15 -20 -25 -16 -10 -25 -18 -20 -18 4 0 -2 -9 -13 -20 -11
-11 -24 -20 -30 -20 -5 0 -13 -6 -17 -13 -4 -7 -19 -21 -33 -30 -13 -9 -21
-17 -17 -17 4 0 -1 -8 -10 -18 -10 -11 -21 -17 -25 -15 -3 2 -15 -8 -26 -22
-11 -14 -25 -25 -30 -25 -6 0 -17 -9 -25 -20 -8 -11 -17 -17 -20 -13 -4 3 -7
2 -7 -4 0 -6 -19 -23 -42 -38 -41 -27 -63 -45 -114 -91 -12 -12 -25 -20 -27
-18 -2 3 -10 -2 -17 -11 -7 -8 -19 -15 -27 -15 -8 0 -11 -4 -8 -10 3 -5 2 -10
-3 -10 -11 0 -134 -81 -144 -95 -5 -7 -8 -7 -8 0 0 7 -3 7 -8 0 -8 -12 -36
-30 -72 -47 -14 -7 -27 -16 -30 -19 -3 -4 -25 -18 -50 -32 -25 -13 -70 -39
-100 -56 -30 -17 -67 -37 -82 -44 -16 -6 -28 -15 -28 -20 0 -4 -5 -5 -11 -2
-5 4 -18 0 -27 -8 -18 -17 -72 -41 -84 -39 -5 1 -8 -2 -8 -8 0 -5 -4 -10 -10
-10 -17 0 -90 -34 -90 -42 0 -5 -11 -8 -25 -8 -14 0 -25 -4 -25 -8 0 -5 -6 -9
-12 -9 -7 0 -35 -10 -63 -23 -27 -13 -54 -22 -58 -21 -4 0 -20 -5 -35 -13 -27
-13 -145 -55 -172 -61 -8 -2 -16 -4 -17 -5 -2 -2 -6 -3 -10 -5 -5 -1 -15 -4
-23 -8 -23 -9 -114 -37 -136 -42 -10 -2 -44 -11 -74 -20 -56 -15 -103 -26
-130 -29 -9 -1 -20 -5 -25 -8 -10 -5 -65 -17 -120 -25 -59 -8 -80 -12 -85 -14
-3 -1 -9 -3 -15 -4 -5 -2 -12 -4 -15 -5 -3 -1 -21 -4 -40 -5 -19 -2 -51 -7
-70 -11 -19 -4 -54 -7 -77 -8 -22 0 -39 -4 -37 -8 2 -3 -10 -6 -28 -6 -75 1
-89 -2 -82 -14 6 -10 4 -10 -7 -3 -8 6 -36 9 -64 7 -93 -6 -650 -9 -660 -4 -5
3 -30 7 -55 8 -63 3 -161 12 -186 18 -12 2 -43 5 -70 7 -27 1 -53 5 -59 8 -5
3 -17 6 -25 7 -8 2 -33 5 -55 9 -22 3 -50 7 -62 8 -13 0 -23 4 -23 9 0 4 -7 5
-15 2 -8 -3 -20 -2 -27 2 -7 5 -24 10 -38 12 -46 6 -75 10 -75 12 0 1 -7 3
-15 5 -39 10 -57 15 -87 24 -18 5 -33 8 -33 5 0 -3 -10 0 -21 7 -12 6 -31 12
-43 14 -11 2 -42 10 -68 19 -25 8 -49 12 -52 9 -3 -4 -6 -1 -6 6 0 7 -6 11
-14 8 -8 -3 -16 -1 -18 5 -2 6 -13 11 -23 12 -30 3 -75 17 -104 32 -14 8 -31
14 -38 14 -7 0 -29 7 -50 16 -21 9 -47 20 -58 24 -11 5 -42 18 -69 31 -27 12
-55 22 -63 22 -7 0 -13 4 -13 9 0 4 -5 8 -12 8 -6 0 -41 14 -77 32 -36 17 -69
31 -73 30 -5 -1 -8 2 -8 8 0 5 -9 10 -19 10 -11 0 -21 4 -23 8 -3 9 -93 52
-108 52 -5 0 -10 4 -10 9 0 5 -21 20 -47 33 -27 13 -50 26 -51 31 -2 4 -12 7
-23 7 -10 0 -19 4 -19 8 0 4 -15 16 -32 27 -18 10 -58 34 -88 54 -30 19 -58
34 -62 33 -5 -1 -8 2 -8 8 0 5 -13 16 -29 25 -16 8 -35 20 -43 28 -7 7 -29 23
-50 35 -48 30 -55 50 -20 64 15 6 30 11 35 10 4 -1 7 2 7 8 0 5 9 10 20 10 11
0 20 4 20 8 0 4 10 8 22 9 11 1 25 8 29 15 5 7 9 10 9 5 0 -4 12 -1 28 6 15 8
56 25 92 37 36 13 68 27 71 32 3 5 10 9 15 8 8 -1 68 19 114 38 8 3 20 7 25 7
6 1 23 7 38 13 16 7 34 12 41 12 6 0 17 5 24 12 7 7 12 8 12 4 0 -5 7 -3 15 4
8 7 15 10 15 6 0 -3 12 -1 28 5 30 12 61 20 80 21 6 1 12 6 12 11 0 5 6 7 14
4 7 -3 18 -1 23 4 5 5 24 11 41 12 18 1 32 6 32 11 0 5 3 7 6 4 3 -4 20 -2 37
4 18 5 46 11 62 13 17 2 44 7 60 10 17 4 48 8 70 10 22 2 40 4 40 5 0 1 11 3
25 4 14 0 31 5 38 9 6 5 12 4 12 0 0 -12 224 -10 232 2 5 7 8 7 8 0 0 -10 18
-11 220 -17 58 -2 111 -7 117 -11 7 -4 21 -3 31 2 13 7 22 7 29 0 8 -8 18 -7
33 1 15 8 20 8 16 1 -4 -6 0 -11 11 -12 10 -1 52 -2 93 -4 41 -1 85 -5 98 -8
12 -3 22 -1 22 4 0 6 6 7 12 2 7 -4 31 -8 53 -9 22 -1 40 -2 40 -3 0 -1 32 -4
70 -6 39 -2 95 -6 125 -9 30 -4 81 -7 113 -8 31 -1 57 -4 57 -8 0 -3 11 -6 25
-6 14 0 25 5 25 11 0 6 3 7 8 0 9 -13 125 -13 134 0 5 7 8 7 8 0 0 -11 59 -13
75 -3 6 4 25 5 43 4 17 -1 32 1 32 5 0 3 10 5 23 5 12 -1 27 1 32 5 6 5 24 10
40 13 34 7 91 27 120 42 11 6 32 14 48 18 15 3 27 11 27 16 0 6 6 10 14 10 8
0 50 19 93 42 43 23 88 46 100 52 13 6 23 15 23 19 0 5 5 5 12 1 6 -4 17 1 25
12 8 10 16 18 19 16 2 -1 19 5 37 15 17 9 38 18 46 19 8 2 18 9 22 16 5 7 9 9
9 5 0 -5 12 0 28 11 15 11 37 23 50 26 12 4 22 12 22 18 0 6 3 8 6 5 4 -4 19
2 34 13 15 11 30 17 34 13 3 -3 6 -2 6 4 0 5 24 20 53 33 28 12 59 29 67 36 8
7 18 13 22 13 10 1 101 44 108 51 3 3 12 6 20 8 8 2 17 8 18 13 2 5 8 7 13 3
5 -3 9 0 9 6 0 6 5 8 10 5 6 -3 10 -1 10 4 0 6 3 10 8 9 10 -3 125 54 134 67
4 6 8 7 8 2 0 -4 17 3 38 16 20 13 40 24 43 23 9 -2 83 38 91 49 5 7 8 7 8 0
0 -5 5 -2 11 8 6 9 14 15 19 12 9 -6 42 9 73 34 9 8 17 10 17 6 0 -4 9 0 20
10 11 10 20 15 20 12 0 -7 85 36 106 54 8 6 14 8 14 4 0 -4 7 -1 16 6 9 7 23
14 31 15 8 2 24 11 35 21 11 10 21 16 22 13 3 -6 80 32 84 43 2 4 8 5 13 1 5
-3 9 0 9 5 0 6 3 10 8 9 9 -3 146 65 150 75 2 4 7 5 12 2 5 -3 16 2 24 11 9 8
16 12 16 7 0 -4 14 7 30 25 17 18 30 30 30 25 0 -4 5 0 11 10 5 9 7 23 3 30
-4 6 -4 9 1 5 23 -22 56 90 42 142 -7 27 -21 55 -31 65 -37 36 -114 72 -140
66 -4 -1 -13 2 -20 7 -12 9 -116 8 -186 -2 -25 -4 -58 -9 -75 -11 -38 -5 -71
-12 -95 -20 -10 -3 -27 -8 -37 -10 -20 -5 -87 -22 -118 -31 -11 -3 -27 -7 -35
-9 -8 -1 -22 -5 -30 -8 -51 -18 -83 -26 -91 -21 -5 3 -9 0 -9 -7 0 -7 -3 -10
-6 -6 -3 3 -23 -1 -45 -8 -21 -8 -39 -12 -39 -10 0 2 -16 -3 -35 -11 -19 -8
-36 -14 -37 -13 -2 1 -23 -4 -48 -11 -25 -7 -56 -14 -70 -17 -13 -2 -29 -8
-35 -12 -5 -5 -18 -7 -27 -6 -10 2 -18 -2 -18 -8 0 -5 -3 -8 -6 -4 -3 3 -23
-1 -45 -8 -21 -8 -39 -12 -39 -10 0 3 -12 0 -27 -6 -16 -6 -39 -13 -52 -15
-14 -3 -29 -8 -35 -12 -11 -7 -28 -11 -58 -14 -10 -1 -18 -6 -18 -11 0 -4 -4
-6 -9 -2 -5 3 -20 1 -33 -5 -13 -5 -41 -14 -63 -19 -31 -8 -41 -16 -41 -31 0
-11 4 -20 9 -20 4 0 5 -5 2 -11 -4 -5 -9 -29 -12 -52 -6 -61 -47 -173 -77
-212 -14 -18 -26 -37 -26 -40 0 -8 -26 -35 -34 -35 -6 0 -36 -24 -61 -48 -8
-6 -16 -12 -19 -12 -4 0 -25 -9 -49 -19 -58 -27 -117 -42 -226 -56 -14 -2 -26
-5 -26 -6 0 -3 -101 -9 -201 -13 -50 -1 -96 -6 -102 -10 -6 -3 -13 -2 -17 4
-5 9 -18 9 -60 0 -5 -1 -12 -1 -15 0 -7 2 -201 9 -337 12 -62 1 -113 5 -113 8
0 4 -17 5 -37 3 -47 -5 -42 -5 -138 3 -44 3 -121 6 -171 7 -62 1 -91 5 -91 13
0 7 11 10 29 7 15 -2 28 0 28 5 0 5 30 9 68 10 88 1 161 8 169 15 3 4 13 2 23
-3 10 -5 21 -6 25 -2 3 4 30 8 58 9 85 4 126 9 133 15 3 4 16 3 29 -2 13 -5
25 -6 29 -3 6 6 109 14 208 17 38 0 68 3 68 6 0 3 28 7 63 8 97 4 202 10 202
12 0 1 17 4 38 5 20 1 44 8 52 15 11 9 15 9 15 1 0 -9 5 -9 20 -1 11 6 20 8
20 4 0 -3 7 -1 15 6 8 6 19 9 24 6 5 -4 12 -2 15 3 3 5 18 12 33 16 39 9 113
47 113 57 0 4 5 8 12 8 39 0 115 138 109 198 -3 36 -5 42 -13 42 -5 0 -7 4 -4
8 8 13 -38 76 -71 98 -35 23 -123 65 -123 58 0 -3 -9 0 -20 6 -22 12 -62 19
-135 24 -27 2 -50 4 -50 6 0 1 -26 3 -57 4 -36 1 -58 -2 -58 -8 0 -7 -3 -8 -8
-1 -9 13 -145 14 -154 0 -5 -7 -8 -6 -8 1 0 6 -12 10 -27 8 -15 -1 -31 0 -36
3 -6 3 -60 7 -121 9 -144 3 -334 17 -373 27 -13 3 -23 1 -23 -5 0 -7 -5 -6
-14 1 -8 7 -36 14 -63 16 -26 3 -59 7 -73 10 -14 3 -36 8 -50 10 -14 1 -36 6
-50 9 -27 6 -81 19 -92 22 -5 1 -9 2 -10 4 -2 1 -12 3 -23 5 -51 8 -80 17 -92
27 -7 6 -13 8 -13 4 0 -3 -17 1 -37 10 -21 9 -42 17 -48 18 -5 1 -35 9 -65 18
-101 31 -136 35 -215 27 -5 0 -29 1 -52 4 -24 3 -43 2 -43 -3 0 -4 -12 -8 -27
-8 -42 0 -83 -6 -83 -12 0 -3 -12 -7 -26 -8 -14 -1 -31 -5 -37 -9 -7 -4 -14
-8 -17 -9 -3 0 -18 -6 -35 -13 -16 -7 -37 -14 -45 -16 -8 -2 -17 -4 -20 -5 -3
-1 -8 -2 -12 -1 -5 0 -8 -4 -8 -9 0 -5 -3 -9 -7 -8 -12 3 -147 -64 -155 -76
-4 -6 -8 -7 -8 -3 0 5 -13 -1 -30 -13 -16 -12 -30 -18 -30 -13 0 4 -4 3 -8 -3
-4 -6 -32 -24 -62 -40 -30 -16 -61 -35 -68 -41 -7 -7 -20 -13 -28 -13 -8 0
-14 -4 -14 -10 0 -5 -6 -10 -13 -10 -7 0 -23 -9 -35 -20 -12 -12 -22 -17 -22
-13 0 4 -7 -1 -16 -12 -8 -11 -18 -20 -22 -19 -4 1 -24 -10 -44 -22 -21 -13
-41 -24 -46 -24 -4 0 -13 -5 -20 -12 -12 -12 -112 -68 -222 -125 -30 -15 -56
-31 -58 -35 -2 -5 -8 -8 -13 -8 -12 0 -162 -72 -169 -80 -3 -4 -17 -10 -32
-14 -16 -3 -28 -11 -28 -17 0 -6 -5 -7 -10 -4 -6 4 -27 -4 -48 -17 -20 -12
-39 -22 -42 -22 -9 2 -54 -17 -68 -29 -8 -6 -19 -12 -26 -14 -33 -7 -102 -36
-108 -46 -4 -7 -8 -8 -8 -4 0 4 -10 2 -22 -5 -13 -7 -25 -13 -28 -13 -18 -2
-110 -40 -110 -45 0 -4 -6 -7 -12 -7 -7 0 -44 -12 -81 -27 l-69 -26 -39 40
c-21 21 -39 41 -39 44 0 5 -101 149 -126 179 -7 9 -14 20 -14 22 0 3 -19 36
-43 73 -64 101 -66 105 -77 130 -5 12 -14 22 -20 22 -5 0 -10 8 -10 18 0 9 -9
28 -20 42 -11 14 -20 31 -20 38 0 6 -4 12 -10 12 -5 0 -10 8 -10 18 0 10 -6
24 -13 30 -6 7 -13 16 -13 20 -5 26 -18 52 -25 52 -5 0 -8 3 -7 8 2 9 -44 105
-55 113 -5 3 -8 8 -6 10 5 9 -23 79 -32 79 -5 0 -9 7 -9 16 0 8 -5 25 -12 37
-7 12 -13 27 -14 32 -3 16 -85 228 -92 240 -3 5 -7 16 -8 25 -1 8 -12 44 -24
80 -12 36 -24 76 -26 90 -3 14 -11 43 -19 65 -15 46 -30 116 -27 128 1 4 -2 7
-6 7 -4 0 -8 8 -9 18 -1 9 -5 31 -8 47 -4 17 -9 41 -10 55 -2 14 -4 25 -5 25
-2 0 -4 9 -6 20 -1 11 -6 31 -9 45 -4 14 -8 39 -10 55 -4 31 -12 70 -15 70 -1
0 -8 54 -14 117 -2 25 -6 50 -9 55 -2 4 -3 23 -2 41 1 17 -1 32 -5 32 -6 0
-11 84 -14 222 0 43 -4 78 -7 78 -8 0 -4 299 5 435 11 160 13 190 15 190 1 0
4 29 7 65 6 72 10 105 14 105 1 0 3 14 5 30 3 31 11 85 19 122 9 43 20 118 18
126 -1 4 1 7 6 7 4 0 8 10 9 23 2 23 10 62 13 62 1 0 3 11 5 25 3 30 13 68 41
165 4 12 23 85 29 105 2 8 4 16 5 18 2 1 3 5 4 10 6 28 41 129 47 138 5 6 11
21 13 35 3 13 5 26 6 29 2 3 2 8 1 13 0 4 4 7 11 7 6 0 9 3 6 6 -4 3 7 38 24
77 16 40 31 77 32 82 1 6 8 20 14 33 7 12 10 22 7 22 -4 0 1 7 9 16 9 8 16 22
16 30 0 9 7 22 15 31 8 8 13 19 10 24 -4 5 -1 9 6 9 7 0 10 3 6 6 -3 4 1 21
10 38 10 17 16 34 15 38 -1 3 5 12 13 18 8 7 15 18 15 26 0 7 6 19 14 27 8 8
16 23 18 33 2 10 6 21 9 24 6 5 36 55 84 140 53 94 148 244 158 248 4 2 7 10
7 17 0 7 3 15 8 17 16 7 71 96 64 104 -4 5 -3 6 2 2 8 -7 67 64 66 78 -1 3 11
15 25 26 14 11 24 22 22 25 -3 2 13 22 35 43 21 22 36 40 33 40 -6 0 90 110
165 191 85 92 164 169 172 169 5 0 7 3 5 8 -3 4 24 30 59 57 34 28 63 55 64
60 0 6 13 19 29 30 61 43 161 127 161 137 0 5 4 6 10 3 5 -3 15 3 22 15 7 11
18 20 25 20 7 0 16 7 21 16 5 9 12 15 16 14 7 -1 35 19 97 68 16 13 29 20 29
16 0 -4 8 3 19 14 10 12 23 22 29 22 5 0 12 7 16 15 3 8 9 14 13 13 9 -2 99
50 123 72 9 8 23 16 31 18 7 2 17 9 21 15 4 7 8 9 8 5 0 -4 16 3 35 17 20 13
49 30 65 37 17 7 30 17 30 21 0 5 5 5 10 2 6 -3 10 -1 10 5 0 6 5 8 10 5 6 -3
10 -1 10 5 0 6 5 8 10 5 6 -3 10 -3 10 2 0 4 15 14 33 21 17 7 39 17 47 23 28
17 165 81 250 116 47 19 105 44 128 55 24 11 53 20 63 21 10 1 19 5 19 10 0 4
5 5 10 2 6 -3 10 -2 10 3 0 5 6 9 13 10 22 2 42 7 55 15 6 5 12 5 12 2 0 -3
10 1 21 9 12 8 27 12 34 10 7 -3 16 -1 20 5 3 6 15 11 26 11 10 0 19 4 19 8 0
4 8 8 18 9 24 2 67 12 97 23 14 5 25 8 25 5 0 -2 19 2 42 11 22 8 43 12 46 9
2 -2 14 1 25 7 12 6 32 12 46 14 14 1 41 7 59 13 18 5 35 10 37 10 3 1 6 1 8
2 15 5 49 10 77 13 19 1 44 6 55 9 23 8 83 17 140 22 22 2 40 5 40 5 0 1 22 3
49 6 27 2 53 9 58 16 4 7 8 8 8 3 0 -11 47 -14 65 -4 6 3 29 5 53 4 23 0 42 3
42 7 0 4 10 4 23 -1 13 -5 30 -5 38 -1 7 4 86 7 175 7 88 0 165 3 172 7 7 4
12 4 12 -1 0 -4 35 -7 77 -7 43 1 82 -1 88 -4 16 -10 75 -10 81 -1 3 5 11 3
19 -4 7 -8 29 -12 49 -11 20 2 47 -1 60 -6 15 -5 27 -5 35 3 6 6 11 7 11 1 0
-5 15 -10 33 -11 35 -2 77 -8 117 -17 14 -3 41 -7 60 -10 19 -2 46 -7 60 -10
13 -3 39 -7 57 -8 18 -1 33 -6 33 -12 0 -5 2 -7 5 -4 3 3 42 -2 85 -12 43 -10
82 -15 85 -12 3 3 5 1 5 -5 0 -9 6 -11 50 -15 11 -1 20 -6 20 -11 0 -4 4 -6 8
-3 9 5 67 -13 91 -28 10 -6 12 -5 9 5 -2 8 -17 15 -31 17 -15 2 -27 7 -27 11
0 6 -16 10 -57 13 -7 1 -13 5 -13 9 0 5 -7 6 -15 3 -8 -4 -15 -2 -15 3 0 8
-18 13 -62 16 -10 1 -18 5 -18 9 0 4 -3 7 -7 7 -5 -1 -10 0 -13 1 -3 1 -18 4
-35 6 -16 3 -37 7 -45 11 -14 5 -35 11 -67 17 -7 1 -15 5 -19 9 -4 3 -16 2
-27 -4 -14 -8 -18 -8 -13 0 5 7 -3 11 -22 11 -16 0 -32 3 -35 6 -4 4 -19 8
-34 10 -30 3 -68 11 -68 14 0 1 -13 3 -30 5 -16 1 -30 3 -30 4 0 2 -13 4 -30
5 -16 2 -52 7 -80 11 -27 4 -59 8 -70 10 -11 1 -27 6 -36 10 -10 3 -20 2 -24
-4 -4 -8 -12 -8 -25 -1 -19 10 -123 21 -217 22 -29 1 -53 5 -53 10 0 10 -504
11 -514 1z"/>
<path d="M6610 9981 c0 -5 5 -13 10 -16 6 -3 10 -2 10 4 0 5 -4 13 -10 16 -5
3 -10 2 -10 -4z"/>
<path d="M6655 9960 c3 -5 8 -10 11 -10 2 0 4 5 4 10 0 6 -5 10 -11 10 -5 0
-7 -4 -4 -10z"/>
<path d="M6690 9949 c0 -5 9 -9 20 -9 11 0 20 2 20 4 0 2 -9 6 -20 9 -11 3
-20 1 -20 -4z"/>
<path d="M6747 9929 c7 -7 15 -10 18 -7 3 3 -2 9 -12 12 -14 6 -15 5 -6 -5z"/>
<path d="M8220 9429 c-8 -12 -36 -48 -62 -81 -26 -33 -45 -65 -41 -72 3 -6 3
-8 -2 -4 -4 4 -17 3 -27 -3 -14 -8 -23 -8 -31 0 -6 6 -21 11 -33 11 -13 0 -26
5 -29 11 -4 6 -13 8 -21 5 -8 -3 -14 -1 -14 5 0 6 -4 8 -9 5 -5 -4 -11 -2 -13
3 -4 14 -68 24 -68 11 0 -5 9 -19 20 -30 10 -10 30 -37 44 -58 13 -21 32 -46
41 -55 9 -9 14 -21 11 -26 -4 -5 -2 -11 4 -13 6 -2 -2 -17 -17 -35 -16 -17
-37 -42 -48 -55 -11 -13 -35 -35 -53 -50 -19 -16 -31 -28 -28 -28 3 0 -4 -10
-16 -22 -13 -13 -28 -22 -34 -20 -5 1 -19 -6 -30 -16 -10 -10 -23 -20 -29 -21
-34 -11 -52 -21 -64 -35 -7 -9 -17 -13 -22 -10 -5 3 -9 1 -9 -4 0 -5 -13 -15
-30 -22 -16 -7 -30 -15 -30 -19 0 -3 -23 -19 -50 -35 -27 -16 -46 -34 -43 -39
3 -6 1 -7 -4 -4 -6 4 -22 -2 -36 -13 -14 -11 -30 -20 -37 -20 -6 0 -8 -4 -5
-10 3 -5 -1 -10 -10 -10 -8 0 -18 -7 -21 -15 -4 -8 -12 -15 -20 -15 -8 0 -14
-5 -14 -12 0 -6 -3 -9 -6 -5 -4 3 -12 1 -19 -6 -29 -28 -65 -56 -65 -52 0 3
-16 -10 -35 -30 -20 -19 -38 -35 -41 -35 -11 0 -193 -160 -295 -259 -60 -59
-112 -105 -114 -102 -3 2 -5 -3 -5 -12 0 -8 -9 -19 -20 -22 -11 -4 -18 -11
-15 -16 4 -5 2 -9 -4 -9 -5 0 -22 -18 -39 -40 -16 -22 -32 -37 -35 -33 -4 3
-7 1 -7 -5 0 -6 -10 -22 -22 -35 -13 -12 -39 -42 -58 -64 -19 -23 -45 -54 -57
-68 -13 -15 -23 -31 -23 -36 0 -5 -7 -9 -15 -9 -8 0 -15 -5 -15 -11 0 -11 -84
-124 -100 -134 -9 -6 -24 6 -104 75 -68 59 -175 140 -186 140 -5 0 -10 5 -10
10 0 6 -7 10 -15 10 -8 0 -15 4 -15 8 0 7 -47 36 -107 66 -13 6 -23 14 -23 19
0 4 -6 7 -12 7 -7 0 -24 9 -38 20 -14 11 -33 20 -42 20 -10 0 -18 5 -18 10 0
6 -5 10 -12 10 -10 0 -155 65 -200 90 -10 6 -27 10 -38 10 -11 0 -20 4 -20 9
0 5 -12 12 -27 16 -16 3 -41 13 -58 20 -16 8 -46 18 -65 24 -19 5 -60 19 -90
30 -83 32 -90 25 -19 -20 35 -23 66 -41 68 -40 2 2 7 -1 10 -6 3 -5 22 -20 41
-33 38 -27 65 -48 85 -67 8 -7 18 -13 24 -13 6 0 11 -4 11 -8 0 -5 11 -15 25
-22 13 -7 22 -17 19 -22 -3 -4 1 -8 8 -8 7 0 51 -36 97 -80 46 -44 85 -80 87
-80 8 0 54 -53 70 -79 10 -17 21 -28 25 -25 4 2 13 -9 20 -25 7 -16 16 -28 20
-25 4 2 13 -9 20 -25 7 -16 17 -27 21 -25 4 3 8 -1 8 -9 0 -7 9 -23 19 -34 11
-12 17 -24 14 -27 -4 -3 2 -6 12 -6 10 0 16 -3 12 -6 -3 -4 5 -21 18 -39 14
-17 25 -37 25 -43 0 -7 5 -12 11 -12 5 0 8 -4 5 -9 -4 -5 -3 -11 1 -13 5 -1
25 -35 45 -74 36 -69 36 -71 20 -105 -9 -19 -20 -36 -24 -37 -5 -2 -6 -8 -2
-13 3 -5 1 -9 -3 -9 -5 0 -22 -26 -38 -57 -17 -32 -33 -60 -36 -63 -3 -3 -12
-18 -21 -35 -8 -16 -24 -46 -36 -67 -11 -20 -18 -39 -15 -42 4 -3 2 -6 -4 -6
-10 0 -26 -36 -24 -52 1 -5 -4 -8 -10 -8 -5 0 -7 -4 -4 -10 3 -5 2 -10 -3 -10
-5 0 -13 -10 -17 -22 -4 -13 -8 -25 -9 -28 -1 -3 -15 -30 -31 -60 -47 -88 -64
-128 -57 -134 3 -3 0 -6 -6 -6 -7 0 -12 -5 -12 -11 0 -5 -8 -29 -18 -52 -19
-42 -44 -105 -58 -142 -4 -11 -6 -23 -6 -27 1 -5 -3 -8 -10 -8 -6 0 -8 -3 -5
-7 4 -3 2 -12 -4 -20 -6 -7 -8 -13 -4 -13 4 0 3 -6 -2 -12 -6 -7 -23 -49 -38
-93 -15 -44 -32 -91 -38 -105 -12 -29 -18 -50 -19 -67 -1 -7 -4 -13 -8 -13 -4
0 -7 -7 -8 -15 -1 -8 -3 -22 -4 -30 -1 -8 -4 -15 -8 -15 -4 0 -7 -6 -8 -12 -1
-21 -9 -53 -27 -104 -9 -27 -18 -56 -20 -64 -2 -8 -8 -29 -14 -47 -5 -17 -7
-34 -3 -37 3 -3 0 -6 -6 -6 -6 0 -11 -8 -10 -17 0 -18 -4 -34 -21 -90 -5 -17
-7 -34 -3 -37 3 -3 1 -6 -4 -6 -9 0 -14 -20 -14 -67 0 -12 -5 -25 -10 -28 -6
-4 -8 -11 -5 -16 4 -5 3 -15 -2 -21 -4 -7 -8 -17 -9 -23 -1 -5 -9 -46 -18 -90
-10 -44 -19 -90 -22 -102 -2 -13 -6 -35 -10 -50 -10 -51 -15 -83 -18 -110 -2
-16 -5 -28 -6 -28 -1 0 -3 -9 -4 -20 -2 -11 -6 -42 -11 -70 -5 -27 -9 -59 -11
-70 -3 -24 -13 -99 -19 -140 -7 -51 -17 -148 -18 -182 -1 -18 -4 -33 -7 -33
-5 0 -11 -99 -10 -172 0 -7 -2 -35 -5 -63 -3 -27 -6 -110 -7 -182 -1 -73 -6
-133 -10 -133 -5 0 -4 -8 1 -19 6 -10 9 -28 6 -40 -2 -11 1 -24 7 -27 6 -4
242 -7 524 -8 l512 -1 4 30 c4 44 -2 76 -14 69 -7 -4 -7 0 -1 12 5 11 7 57 5
104 -6 124 -5 938 1 1055 3 55 9 132 12 170 3 39 5 79 5 90 -2 30 -1 37 5 70
7 41 23 183 26 243 1 17 5 32 9 32 3 0 5 18 4 40 -1 22 2 40 7 40 4 0 6 11 3
25 -2 15 -2 31 2 37 4 6 8 25 10 42 1 17 6 45 9 61 4 17 7 42 8 58 0 15 3 27
7 27 3 0 6 8 7 18 0 9 3 27 6 40 4 13 1 22 -6 22 -9 0 -9 2 0 8 6 4 14 22 17
40 3 17 9 46 12 64 3 17 9 41 13 52 5 12 7 29 6 39 -2 9 1 17 6 17 4 0 6 6 3
14 -3 8 0 17 5 21 6 3 9 10 6 15 -2 4 2 29 10 56 8 26 12 50 10 53 -3 2 -1 9
4 15 10 12 21 53 24 91 1 11 4 22 7 25 7 7 33 100 34 123 0 9 3 17 7 17 7 0
24 68 21 83 -1 4 2 7 7 7 5 0 12 17 17 38 4 20 8 39 9 42 0 3 6 15 13 28 7 12
10 22 7 22 -3 0 1 13 10 29 8 17 17 38 18 48 2 10 10 32 16 48 7 17 14 35 15
40 1 6 6 17 11 25 5 8 10 20 11 25 1 6 11 32 23 57 11 26 21 49 21 51 0 3 12
31 27 63 14 33 26 62 25 67 -1 4 3 7 9 7 5 0 7 5 4 10 -3 6 -2 10 3 10 5 0 13
10 17 23 4 12 8 24 10 27 1 3 5 14 10 25 5 11 16 32 26 46 10 14 16 29 12 33
-3 3 0 6 7 6 7 0 10 3 7 6 -3 4 2 18 13 32 11 13 17 28 14 33 -3 5 0 9 5 9 6
0 11 6 11 13 0 6 9 23 20 37 11 14 20 34 20 44 0 11 3 17 6 13 4 -3 14 8 23
26 33 62 60 105 98 158 21 29 31 50 23 46 -8 -5 -5 0 8 9 12 9 22 22 22 29 0
7 7 16 16 19 9 4 14 9 11 12 -6 6 90 136 105 142 4 2 8 10 8 17 0 7 3 15 8 17
4 2 25 26 46 53 22 28 46 56 55 63 8 6 12 12 9 12 -4 0 8 15 25 33 18 19 53
57 79 85 26 29 52 52 57 52 6 0 7 7 4 17 -4 10 -2 14 4 10 6 -4 42 27 82 68
39 41 71 72 71 70 0 -5 25 17 109 95 26 24 75 55 84 52 4 -1 7 2 7 8 0 6 3 10
8 9 15 -2 52 14 52 22 0 5 3 8 8 7 4 -1 17 3 30 10 12 7 22 10 22 6 0 -3 6 -2
13 4 17 14 66 19 69 7 3 -11 23 -37 51 -67 9 -10 14 -18 10 -18 -5 0 -3 -4 3
-8 5 -4 21 -25 34 -46 30 -50 35 -37 34 85 -1 73 2 96 15 110 9 9 58 29 109
45 81 24 112 41 82 45 -13 2 -21 4 -45 13 -11 4 -33 12 -50 18 -54 19 -100 41
-107 52 -4 6 -5 25 -2 41 11 58 11 95 0 95 -7 0 -7 3 -1 8 12 9 16 42 5 42 -5
0 -6 9 -3 20 7 26 1 25 -17 -1z"/>
<path d="M3327 8698 c-12 -8 -16 -58 -4 -58 4 0 5 -6 1 -12 -12 -19 -12 -48 0
-48 7 0 8 -3 1 -8 -13 -9 -13 -155 0 -164 7 -5 7 -8 0 -8 -14 0 -14 -230 0
-230 6 0 6 -3 0 -8 -14 -9 -13 -115 0 -124 7 -5 7 -8 0 -8 -13 0 -13 -180 0
-180 6 0 6 -3 0 -8 -14 -9 -13 -115 0 -124 7 -5 7 -8 0 -8 -13 0 -13 -180 0
-180 6 0 6 -3 0 -8 -14 -9 -13 -115 0 -124 7 -5 7 -8 0 -8 -13 0 -13 -180 0
-180 6 0 6 -3 0 -8 -14 -9 -13 -115 0 -124 7 -5 7 -8 0 -8 -13 0 -13 -90 0
-90 7 0 6 -3 0 -8 -13 -9 -13 -155 0 -164 6 -5 6 -8 -1 -8 -12 0 -12 -108 0
-128 4 -7 3 -12 -1 -12 -11 0 -10 -50 0 -67 5 -7 5 -13 0 -13 -4 0 -8 -18 -8
-40 0 -22 5 -40 10 -40 7 0 6 -3 0 -8 -13 -9 -13 -155 0 -164 6 -5 6 -8 -1 -8
-12 0 -12 -108 0 -128 4 -7 3 -12 -1 -12 -11 0 -10 -50 0 -67 5 -7 5 -13 0
-13 -4 0 -8 -18 -8 -40 0 -22 5 -40 10 -40 7 0 6 -3 0 -8 -13 -9 -13 -155 0
-164 7 -5 7 -8 0 -8 -14 0 -14 -230 0 -230 6 0 6 -3 0 -8 -14 -9 -13 -115 0
-124 7 -5 7 -8 0 -8 -13 0 -13 -180 0 -180 6 0 6 -3 0 -8 -14 -9 -13 -115 0
-124 6 -5 6 -8 -2 -8 -7 0 -10 -9 -8 -22 8 -39 12 -41 131 -51 22 -2 46 -7 52
-11 7 -4 26 -9 44 -11 18 -2 43 -6 56 -9 46 -12 58 -15 110 -29 28 -8 52 -11
52 -8 0 3 5 -1 10 -9 9 -13 10 -13 10 0 0 13 2 13 9 1 5 -8 16 -16 25 -17 26
-4 91 -26 103 -36 7 -5 17 -7 23 -3 5 3 10 2 10 -3 0 -8 32 -22 43 -20 1 1 22
-10 47 -23 25 -12 48 -22 53 -21 4 1 7 -2 7 -7 0 -4 20 -16 45 -25 25 -10 45
-22 45 -27 0 -5 9 -9 20 -9 11 0 20 -3 20 -7 0 -5 24 -20 53 -36 28 -15 76
-45 105 -67 28 -22 52 -38 52 -36 0 3 16 -11 37 -30 20 -19 37 -33 39 -31 11
10 278 -252 352 -345 25 -32 50 -58 55 -58 6 0 8 -3 4 -6 -3 -4 9 -26 28 -49
19 -23 35 -47 35 -54 0 -6 3 -11 8 -11 4 0 12 -8 17 -18 54 -98 91 -120 89
-51 0 19 -3 40 -6 45 -7 12 -7 386 0 399 4 6 7 48 8 95 1 47 4 110 7 140 3 30
8 87 11 125 4 39 9 81 12 95 3 14 7 43 10 65 3 22 6 54 8 70 2 17 5 30 6 30 2
0 4 14 5 30 2 17 4 32 5 35 1 3 2 9 1 14 -1 5 1 16 5 25 4 9 8 26 10 37 7 53
15 97 18 103 2 3 7 22 10 41 3 19 8 46 11 60 3 14 9 36 12 50 3 14 6 31 6 38
0 6 4 12 8 12 4 0 8 8 7 18 0 25 11 72 23 95 8 15 8 18 -1 12 -9 -6 -9 -3 -1
12 18 35 40 106 35 115 -3 4 0 8 7 8 7 0 9 3 6 6 -3 4 -2 14 3 24 9 16 21 62
22 88 1 6 6 12 11 12 6 0 8 2 5 5 -3 3 10 50 29 103 19 53 36 108 37 121 2 14
8 27 14 29 7 2 12 11 12 20 1 10 9 35 20 57 11 22 19 44 20 48 0 4 14 37 30
72 17 35 30 71 30 79 0 8 5 16 10 18 6 2 12 13 14 25 3 12 12 32 20 46 9 13
13 27 9 30 -3 4 -2 7 4 7 9 0 25 35 20 43 -1 1 8 17 21 35 13 17 21 32 18 32
-3 0 9 24 26 53 17 28 31 58 31 65 0 6 3 12 7 12 3 0 12 16 19 35 7 19 19 42
27 50 8 8 16 24 17 34 0 11 5 17 9 15 4 -3 8 1 8 9 0 8 7 20 15 27 8 7 12 16
9 21 -3 5 -1 9 4 9 5 0 12 8 15 18 7 21 37 71 55 90 6 7 12 19 12 27 0 7 4 15
8 17 4 2 23 26 41 53 34 50 45 105 23 113 -7 2 -12 12 -12 23 0 10 -4 19 -10
19 -5 0 -10 7 -10 15 0 8 -5 15 -12 15 -6 0 -8 3 -5 7 4 3 -4 21 -18 39 -14
18 -25 37 -25 43 0 6 -4 11 -10 11 -5 0 -10 7 -10 15 0 8 -4 15 -9 15 -5 0
-12 8 -15 18 -3 10 -23 36 -44 58 -38 42 -42 47 -42 64 0 6 -6 10 -12 10 -7 0
-24 16 -38 34 -14 19 -28 32 -32 29 -5 -2 -8 2 -8 10 0 7 -18 30 -40 51 -22
20 -40 42 -40 48 0 6 -3 9 -6 6 -3 -3 -16 4 -28 16 -13 11 -37 33 -54 48 -17
14 -28 29 -25 32 6 6 -12 10 -29 7 -5 0 -8 5 -8 13 0 8 -9 18 -20 21 -11 4
-18 11 -15 16 4 5 1 9 -6 9 -6 0 -39 22 -73 48 -80 63 -226 158 -237 154 -5
-1 -9 2 -9 8 0 9 -95 63 -112 65 -4 0 -13 6 -20 13 -6 6 -18 12 -25 12 -7 0
-13 3 -13 8 0 6 -69 42 -90 47 -3 0 -41 18 -85 39 -44 21 -87 39 -96 41 -9 2
-25 8 -35 13 -11 6 -46 20 -79 32 -33 12 -69 26 -80 31 -11 5 -29 11 -40 12
-11 2 -28 7 -37 11 -9 4 -22 9 -30 10 -12 3 -20 6 -65 23 -10 3 -31 8 -48 10
-16 3 -41 11 -56 18 -14 8 -29 12 -32 8 -4 -3 -19 0 -35 6 -16 7 -38 13 -50
14 -12 1 -22 4 -22 7 0 5 -39 12 -87 14 -13 1 -23 3 -23 6 0 3 -15 7 -32 8
-18 2 -51 8 -73 14 -43 12 -490 17 -508 6z"/>
<path d="M7668 8598 c-10 -10 -20 -18 -23 -18 -6 0 -45 -38 -45 -43 0 -2 -33
-37 -73 -78 -40 -41 -88 -94 -107 -118 -19 -24 -41 -49 -47 -56 -7 -8 -13 -19
-13 -25 0 -6 -4 -8 -10 -5 -5 3 -10 2 -10 -3 0 -10 -80 -115 -92 -120 -5 -2
-8 -9 -8 -16 0 -7 -9 -22 -20 -34 -12 -12 -18 -22 -15 -22 3 0 -12 -24 -33
-52 -21 -29 -44 -65 -52 -80 -7 -16 -17 -28 -22 -28 -5 0 -6 -4 -3 -10 3 -5 1
-10 -4 -10 -6 0 -11 -9 -11 -20 0 -11 -3 -20 -8 -20 -4 0 -19 -21 -32 -47 -14
-26 -31 -54 -37 -61 -7 -7 -13 -22 -13 -32 0 -10 -4 -20 -8 -22 -10 -3 -82
-151 -82 -166 0 -6 -4 -12 -8 -14 -4 -1 -25 -43 -45 -93 -21 -49 -47 -107 -57
-128 -11 -21 -14 -35 -7 -31 7 4 4 -2 -6 -13 -10 -11 -19 -30 -20 -42 -1 -11
-6 -21 -11 -21 -5 0 -7 -3 -3 -6 3 -4 0 -19 -9 -35 -8 -16 -12 -29 -9 -29 2 0
-5 -18 -16 -40 -11 -21 -18 -44 -14 -50 3 -5 1 -10 -6 -10 -7 0 -9 -3 -6 -7 4
-3 2 -12 -4 -20 -6 -7 -8 -13 -5 -13 4 0 2 -9 -4 -21 -11 -20 -21 -53 -22 -76
-1 -7 -6 -13 -11 -13 -6 0 -8 -3 -4 -6 3 -3 -1 -23 -8 -45 -8 -21 -12 -39 -9
-39 2 0 -1 -10 -8 -22 -6 -13 -13 -30 -15 -39 -1 -8 -10 -42 -19 -75 -9 -32
-17 -66 -18 -74 -1 -9 -5 -21 -10 -28 -4 -6 -4 -16 -1 -22 3 -5 3 -16 -2 -22
-4 -7 -8 -17 -10 -23 -1 -5 -5 -21 -8 -35 -3 -14 -8 -36 -11 -48 -3 -13 -12
-49 -20 -80 -9 -32 -17 -73 -19 -92 -2 -19 -4 -37 -5 -40 -1 -3 -3 -9 -5 -15
-1 -5 -3 -12 -4 -15 -1 -3 -4 -21 -6 -41 -1 -20 -5 -45 -9 -55 -3 -10 -8 -37
-11 -59 -4 -22 -9 -51 -11 -65 -3 -14 -7 -38 -9 -55 -2 -16 -6 -48 -9 -70 -3
-22 -7 -60 -10 -85 -3 -25 -8 -61 -11 -80 -8 -55 -16 -122 -18 -162 -1 -20 -6
-40 -10 -44 -4 -4 -2 -13 4 -21 6 -7 8 -13 3 -13 -5 0 -9 -15 -10 -32 0 -18
-4 -49 -8 -68 -4 -19 -9 -87 -11 -150 -3 -63 -6 -164 -9 -225 -2 -60 -6 -122
-9 -138 -2 -15 0 -30 4 -33 5 -3 4 -14 -1 -25 -8 -14 -7 -19 2 -19 8 0 9 -3 3
-8 -14 -9 -13 -195 0 -204 7 -5 6 -11 -1 -15 -6 -5 -9 -34 -7 -68 4 -80 4 -75
0 -115 -2 -19 2 -38 7 -42 8 -6 8 -10 0 -15 -5 -5 -9 -26 -7 -48 2 -22 5 -79
6 -127 1 -49 5 -88 9 -88 3 0 4 -9 1 -20 -3 -12 0 -20 6 -20 7 0 9 -5 5 -12
-4 -6 -3 -8 3 -5 6 4 14 19 17 33 4 14 18 40 32 58 14 17 24 33 23 36 -2 3 9
18 24 34 15 16 26 31 23 33 -2 2 12 20 30 40 18 20 31 40 28 45 -3 4 3 8 12 8
10 0 14 3 11 6 -3 4 5 16 19 26 14 11 23 22 21 24 -2 3 17 28 44 57 27 29 49
55 49 60 0 4 6 7 14 7 14 0 31 28 27 45 -2 5 1 7 5 3 4 -5 24 10 46 31 21 22
38 37 38 35 0 -3 16 11 37 31 20 19 40 35 45 35 5 0 6 5 3 10 -3 6 -1 10 6 10
7 0 30 15 53 34 87 71 354 236 383 236 7 0 16 7 19 15 4 8 10 12 15 9 5 -2 19
1 31 8 13 7 25 13 28 13 3 0 19 8 36 18 17 9 34 13 38 10 3 -4 6 -1 6 5 0 7 3
11 8 11 18 -3 32 2 46 17 9 8 16 10 16 4 0 -7 11 -5 30 5 16 8 31 15 32 14 2
-1 23 5 48 12 25 7 50 14 55 15 6 1 13 3 18 4 4 1 12 4 17 5 6 1 11 3 13 4 1
1 18 4 36 7 19 2 37 8 40 12 4 4 21 7 39 7 17 -1 32 3 32 8 0 4 5 5 10 2 6 -3
10 0 10 7 0 8 3 9 8 3 6 -9 27 -12 35 -5 1 1 20 4 42 5 51 4 66 8 81 20 9 7 9
12 0 17 -6 4 -6 8 -1 8 12 0 13 3495 1 3507 -4 4 -104 7 -224 8 -194 0 -219
-2 -234 -17z"/>
<path d="M2893 8372 c-13 -2 -23 -6 -24 -10 0 -4 -1 -756 -2 -1672 -1 -973 -6
-1671 -11 -1679 -7 -10 -6 -12 3 -6 10 6 11 3 3 -11 -5 -11 -7 -37 -5 -59 2
-22 4 -44 4 -50 -1 -5 -2 -27 -4 -47 -1 -21 1 -38 6 -38 5 0 5 -6 0 -12 -6 -7
-8 -31 -6 -53 2 -22 4 -47 4 -55 -4 -67 -2 -150 4 -172 6 -23 10 -26 26 -18
10 6 22 10 26 9 4 -1 10 0 13 1 11 4 101 19 150 25 19 2 35 5 35 6 0 4 234 21
270 19 6 0 33 -1 60 -3 28 -2 58 1 68 5 9 5 17 5 17 0 0 -4 15 -8 33 -9 51 -2
162 -11 162 -13 0 -2 16 -4 35 -5 19 -2 35 -4 35 -5 0 -3 100 -22 123 -23 6 0
12 -3 12 -7 0 -4 6 -7 13 -7 22 -1 66 -11 77 -18 10 -6 42 -13 78 -17 6 -1 12
-6 12 -11 0 -5 6 -7 14 -4 8 3 16 1 18 -4 2 -6 15 -12 28 -13 14 -2 43 -12 65
-22 22 -10 46 -17 53 -15 6 1 12 -3 12 -9 0 -5 4 -10 9 -10 5 0 26 -8 47 -17
22 -9 42 -16 47 -15 4 1 7 -3 7 -9 0 -5 4 -8 9 -4 5 3 16 -1 24 -9 8 -8 17
-12 21 -9 3 4 6 1 6 -6 0 -7 4 -10 9 -7 5 3 14 -1 21 -9 7 -8 16 -15 21 -15 5
0 35 -16 66 -36 95 -59 98 -61 103 -60 5 1 24 -13 61 -46 10 -10 24 -18 29
-18 6 0 10 -4 10 -8 0 -5 12 -15 27 -23 15 -8 35 -21 44 -29 9 -8 29 -25 45
-37 16 -12 39 -31 52 -43 15 -14 22 -16 22 -7 0 12 -56 80 -112 135 -12 12
-18 22 -13 22 5 0 -2 8 -15 17 -14 10 -33 28 -43 40 -10 13 -24 29 -32 36 -7
6 -62 59 -122 117 -118 113 -149 140 -161 140 -5 0 -21 14 -37 30 -16 17 -32
30 -37 30 -7 0 -35 21 -63 48 -8 6 -16 12 -18 12 -2 0 -39 23 -81 51 -43 28
-92 57 -111 65 -18 7 -37 18 -40 24 -4 6 -11 8 -16 5 -5 -4 -9 -1 -9 4 0 6 -9
11 -19 11 -11 0 -23 5 -26 11 -6 8 -44 28 -65 34 -3 0 -20 9 -37 18 -18 10
-33 15 -33 12 0 -3 -10 1 -23 10 -13 8 -27 12 -30 8 -4 -3 -7 -1 -7 6 0 7 -4
10 -9 6 -5 -3 -12 -1 -16 5 -3 5 -16 10 -29 10 -12 0 -26 4 -32 9 -5 6 -29 15
-54 21 -25 6 -54 13 -65 16 -11 3 -27 7 -35 9 -8 2 -16 4 -17 5 -2 2 -11 3
-20 5 -10 1 -29 5 -43 8 -14 4 -45 9 -70 12 -25 2 -63 7 -85 10 -22 3 -63 6
-92 7 -58 2 -59 3 -58 83 0 28 -4 53 -10 58 -7 4 -7 10 0 15 6 4 11 21 11 37
0 17 -5 33 -11 37 -7 5 -7 8 0 8 6 0 11 16 11 35 0 19 -5 35 -11 35 -7 0 -7 3
0 8 6 4 11 21 11 37 0 17 -5 33 -11 37 -7 5 -7 8 0 8 6 0 11 16 11 35 0 19 -5
35 -11 35 -7 0 -7 3 0 8 6 4 11 21 11 37 0 17 -5 33 -11 37 -7 5 -7 8 0 8 6 0
11 16 11 35 0 19 -5 35 -11 35 -7 0 -7 3 0 8 6 4 11 21 11 37 0 17 -5 33 -11
37 -7 5 -7 8 0 8 7 0 10 32 8 88 -2 48 -3 92 -3 97 0 6 1 32 3 58 1 27 -1 51
-5 53 -5 3 -5 10 -2 16 11 17 11 82 1 96 -5 6 -6 12 -1 12 8 0 10 104 4 120
-1 3 -1 10 0 15 7 29 5 82 -3 93 -5 6 -6 12 -1 12 8 0 10 104 4 120 -1 3 -1
10 0 15 7 29 5 82 -3 93 -5 6 -6 12 -1 12 8 0 10 104 4 120 -1 3 -1 10 0 15 7
29 5 82 -3 93 -5 6 -5 12 -1 12 5 0 8 26 7 58 -4 76 -4 73 0 102 2 14 -1 33
-5 43 -5 9 -5 17 0 17 4 0 8 16 8 35 0 19 -5 35 -11 35 -7 0 -7 3 0 8 6 4 11
21 11 37 0 17 -5 33 -11 37 -7 5 -7 8 0 8 6 0 11 16 11 35 0 19 -5 35 -11 35
-7 0 -7 3 0 8 14 9 14 65 0 74 -7 5 -7 8 0 8 6 0 11 16 11 35 0 19 -5 35 -11
35 -7 0 -7 3 0 8 6 4 11 21 11 37 0 17 -5 33 -11 37 -7 5 -7 8 0 8 6 0 11 16
11 35 0 19 -5 35 -11 35 -7 0 -7 3 0 8 6 4 11 21 11 37 0 17 -5 33 -11 37 -7
5 -7 8 0 8 6 0 11 16 11 35 0 19 -5 35 -11 35 -7 0 -7 3 0 8 6 4 11 21 11 37
0 17 -5 33 -11 37 -7 5 -7 8 0 8 6 0 11 16 11 35 0 19 -5 35 -11 35 -7 0 -7 3
0 8 6 4 11 21 11 37 0 17 -5 33 -11 37 -7 5 -7 8 0 8 6 0 11 16 11 35 0 19 -5
35 -11 35 -7 0 -7 3 0 8 6 4 11 21 11 37 0 17 -5 33 -11 37 -7 5 -7 8 0 8 6 0
11 16 11 35 0 19 -5 35 -11 35 -7 0 -7 3 0 8 6 4 10 33 10 65 0 48 -3 58 -20
64 -20 7 -252 11 -292 5z"/>
<path d="M8252 8276 c-3 -5 -6 -757 -6 -1670 -1 -1323 -4 -1660 -13 -1659 -7
2 -13 -1 -13 -5 0 -4 -34 -8 -76 -9 -53 -1 -79 -5 -85 -14 -6 -9 -9 -10 -9 -2
0 7 -9 10 -22 7 -13 -3 -34 -7 -48 -9 -14 -2 -36 -7 -50 -10 -30 -7 -80 -16
-97 -17 -7 -1 -13 -5 -13 -10 0 -5 -4 -6 -10 -3 -5 3 -18 1 -28 -4 -10 -5 -29
-12 -43 -14 -13 -2 -33 -7 -44 -12 -11 -4 -47 -18 -80 -31 -33 -13 -73 -28
-90 -35 -16 -7 -32 -13 -35 -14 -48 -19 -70 -31 -70 -38 0 -4 -4 -5 -10 -2 -5
3 -10 1 -10 -5 0 -6 -4 -8 -10 -5 -5 3 -10 1 -10 -5 0 -6 -4 -9 -9 -6 -5 3
-14 -1 -21 -9 -7 -8 -16 -12 -21 -9 -5 3 -9 2 -9 -3 0 -4 -29 -24 -65 -42 -36
-19 -65 -39 -65 -43 0 -4 -7 -8 -15 -8 -7 0 -18 -7 -23 -16 -5 -9 -13 -16 -18
-16 -13 0 -162 -109 -201 -147 -18 -17 -37 -31 -43 -31 -5 0 -10 -5 -10 -11 0
-5 -4 -8 -9 -5 -4 3 -16 -3 -26 -14 -10 -11 -15 -20 -12 -20 3 0 -5 -11 -19
-25 -14 -14 -28 -25 -31 -25 -3 0 -20 -16 -38 -34 -18 -19 -35 -32 -39 -29 -3
4 -6 1 -6 -5 0 -6 -10 -20 -22 -32 -12 -11 -19 -20 -16 -20 3 0 -20 -26 -52
-57 -32 -31 -57 -60 -54 -64 2 -4 -4 -10 -15 -14 -19 -6 -36 -33 -26 -43 3 -3
11 1 18 9 6 8 30 28 52 44 22 16 47 35 55 42 8 7 19 13 23 12 5 0 18 10 30 23
12 13 36 30 52 38 17 8 36 21 44 28 7 7 35 24 62 38 27 13 49 30 49 36 0 6 3
9 6 5 5 -5 47 13 117 49 15 9 27 12 27 7 0 -4 4 -3 8 2 11 16 46 32 91 45 22
6 41 15 41 20 0 6 8 10 18 10 9 1 35 8 57 16 22 8 48 17 58 19 9 2 23 7 29 11
7 5 19 9 28 10 8 1 25 5 38 8 50 13 68 18 87 22 11 2 49 11 85 19 144 32 225
39 445 39 172 0 276 -6 345 -19 13 -3 42 -7 65 -10 22 -4 57 -11 77 -17 56
-16 64 -9 62 58 -1 33 -3 73 -3 89 -1 17 0 74 1 128 2 53 -1 97 -5 97 -5 0 -5
6 0 13 10 17 10 147 -1 147 -5 0 -4 6 1 13 6 6 8 30 6 52 -2 22 -4 47 -3 55 1
23 2 181 1 215 0 17 0 71 0 120 1 50 1 104 0 120 0 17 0 55 0 85 0 30 0 66 0
80 0 14 0 66 0 115 1 50 1 104 0 120 0 17 0 71 0 120 1 50 1 104 0 120 0 17 0
71 0 120 1 50 1 104 0 120 0 17 0 89 0 160 1 72 0 144 0 160 -1 17 0 92 1 168
2 75 -1 137 -5 137 -5 0 -5 6 0 13 10 17 10 147 -1 147 -5 0 -4 6 1 13 6 6 8
30 6 52 -2 22 -4 47 -3 55 1 23 2 181 1 215 0 17 0 71 0 120 1 50 1 104 0 120
-1 17 0 74 1 128 2 53 -1 97 -5 97 -5 0 -5 6 0 13 10 17 10 147 -1 147 -5 0
-3 6 3 14 13 15 5 46 -13 47 -80 5 -309 2 -314 -5z"/>
<path d="M6236 8139 c-55 -29 -73 -49 -89 -94 -30 -89 -6 -157 75 -209 45 -29
178 -16 178 17 0 6 3 7 7 4 3 -4 13 3 22 16 9 12 13 22 11 23 -3 0 3 9 13 19
15 14 16 20 5 26 -11 7 -11 9 0 9 7 0 10 5 7 10 -3 6 -1 10 5 10 8 0 8 6 0 20
-6 10 -9 23 -8 27 3 13 -13 54 -31 75 -20 24 -86 60 -95 51 -3 -4 -6 -1 -6 5
0 11 -31 9 -52 -4 -7 -4 -8 -3 -4 4 9 15 8 15 -38 -9z"/>
<path d="M2487 7962 c-9 -2 -17 -9 -18 -15 0 -7 -1 -949 -2 -2094 l-2 -2081
30 16 c16 10 36 23 43 30 7 6 20 12 28 12 8 0 17 7 20 15 4 8 14 15 24 15 10
0 26 7 34 16 9 8 16 13 16 9 0 -3 12 2 28 13 33 22 96 52 111 52 6 0 11 5 11
11 0 5 4 8 8 5 5 -3 22 2 38 10 33 18 254 95 254 89 0 -2 16 3 35 11 19 8 35
12 35 9 0 -2 11 0 25 5 28 11 58 17 120 26 22 4 48 11 59 16 14 8 17 7 11 -3
-6 -8 -4 -10 5 -4 7 5 30 10 49 12 20 2 59 6 86 9 69 8 458 12 469 6 5 -3 28
-7 50 -8 23 -2 64 -6 91 -9 28 -3 62 -6 78 -7 15 -1 27 -5 27 -10 0 -4 7 -5
15 -2 8 4 23 3 32 -1 10 -5 27 -9 38 -10 11 -1 34 -5 50 -9 17 -5 39 -10 50
-12 37 -7 60 -13 93 -23 18 -5 33 -10 35 -10 2 0 11 -2 77 -22 25 -8 47 -14
50 -15 3 0 13 -4 22 -8 9 -4 22 -9 30 -10 7 -2 21 -6 31 -11 10 -4 21 -5 24
-1 3 3 -3 9 -13 13 -10 3 -21 9 -24 12 -3 4 -27 17 -55 31 -27 14 -52 27 -55
31 -5 5 -38 21 -50 23 -3 1 -41 19 -85 40 -44 22 -84 40 -90 42 -34 7 -41 10
-46 17 -3 4 -16 9 -27 10 -12 1 -22 4 -22 7 0 3 -21 12 -47 19 -27 8 -53 17
-58 22 -6 4 -22 10 -35 12 -14 2 -33 7 -42 11 -9 4 -22 8 -30 10 -7 1 -17 4
-23 8 -5 3 -23 8 -40 9 -16 2 -33 8 -36 12 -3 5 -24 10 -45 12 -21 1 -39 4
-39 5 0 2 -15 5 -60 14 -16 3 -41 8 -55 11 -14 3 -43 8 -65 10 -22 3 -58 8
-80 11 -22 4 -60 7 -85 8 -25 1 -50 5 -57 9 -6 4 -14 1 -16 -5 -3 -7 -6 -8 -6
-3 -1 7 -32 9 -83 7 -46 -1 -89 -3 -95 -2 -7 0 -19 0 -25 0 -22 1 -131 -10
-163 -15 -16 -3 -47 -7 -67 -10 -21 -2 -55 -9 -75 -14 -21 -5 -51 -12 -68 -14
-16 -3 -52 -13 -80 -22 -27 -10 -62 -21 -76 -25 l-26 -8 0 1834 c0 1009 -3
1837 -6 1840 -7 7 -230 12 -260 6z"/>
<path d="M9200 7880 c6 -11 13 -20 16 -20 2 0 0 9 -6 20 -6 11 -13 20 -16 20
-2 0 0 -9 6 -20z"/>
<path d="M8705 7874 c-6 -6 -10 -31 -9 -55 3 -66 4 -96 3 -194 -1 -49 -1 -103
0 -120 1 -16 0 -74 -1 -128 -2 -53 1 -97 5 -97 5 0 5 -6 0 -12 -10 -18 -10
-148 1 -148 5 0 4 -6 -1 -12 -6 -7 -8 -31 -6 -53 2 -22 4 -47 3 -55 -1 -23 -2
-181 -1 -215 0 -16 0 -70 0 -120 -1 -49 -1 -103 0 -120 0 -16 0 -70 0 -120 -1
-49 -1 -103 0 -120 0 -16 0 -88 0 -160 -1 -71 -1 -143 0 -160 0 -16 0 -88 0
-160 -1 -71 -1 -143 0 -160 0 -16 0 -88 0 -160 -1 -71 0 -143 0 -160 1 -16 0
-92 -1 -168 -2 -75 1 -137 5 -137 5 0 5 -6 0 -12 -10 -18 -10 -148 1 -148 5 0
4 -6 -1 -12 -6 -7 -8 -31 -6 -53 2 -22 4 -47 3 -55 -1 -21 -2 -179 -1 -215 0
-16 0 -80 0 -142 -1 -105 -2 -111 -22 -117 -11 -3 -27 0 -34 6 -7 6 -13 8 -13
4 0 -3 -12 -1 -27 6 -28 10 -80 24 -138 34 -16 3 -37 8 -45 11 -21 8 -31 10
-210 28 -91 9 -290 11 -290 2 0 -5 -4 -5 -10 -2 -5 3 -10 0 -10 -7 0 -9 -3 -9
-8 -2 -7 10 -44 10 -132 -2 -25 -3 -57 -6 -72 -7 -16 -1 -28 -5 -28 -8 0 -3
-15 -6 -32 -6 -18 -1 -46 -5 -63 -11 -16 -5 -38 -8 -47 -6 -10 1 -18 -2 -18
-7 0 -6 -4 -7 -10 -4 -5 3 -16 3 -22 -2 -7 -4 -24 -9 -38 -11 -13 -2 -29 -7
-35 -11 -5 -4 -23 -8 -39 -9 -17 -1 -33 -7 -37 -13 -3 -6 -8 -9 -10 -8 -7 5
-133 -33 -164 -49 -16 -9 -37 -17 -45 -18 -24 -3 -84 -28 -91 -37 -3 -5 -9 -8
-13 -8 -3 1 -22 -6 -42 -14 -20 -8 -40 -15 -44 -15 -4 0 -13 -7 -20 -15 -7 -8
-16 -12 -21 -9 -10 6 -61 -25 -55 -35 2 -3 -7 -7 -21 -8 -14 0 -29 -6 -33 -13
-4 -6 -10 -12 -13 -12 -19 0 -47 -12 -47 -20 0 -5 -4 -6 -10 -3 -5 3 -10 0
-10 -8 0 -12 10 -11 57 5 32 10 67 20 80 22 12 3 27 7 33 11 5 3 20 8 32 11
39 9 53 12 53 14 0 1 10 3 22 6 12 2 28 5 35 6 7 2 16 8 20 13 5 6 8 5 8 -4 0
-11 3 -11 15 -1 8 7 15 10 15 7 0 -3 24 1 53 9 28 8 75 17 102 20 78 8 110 13
110 14 0 1 23 4 50 6 103 8 122 11 133 18 7 4 12 3 12 -1 0 -5 21 -8 48 -7 26
1 47 3 47 4 0 1 28 3 63 4 34 2 62 0 62 -4 0 -9 52 -6 68 4 7 4 12 4 12 -1 0
-4 17 -9 38 -10 82 -4 168 -12 192 -18 36 -9 81 -15 107 -15 12 0 25 -5 28
-10 4 -6 11 -8 16 -5 5 4 15 3 22 -2 6 -4 20 -9 30 -10 32 -5 62 -12 65 -14 1
-1 7 -3 12 -4 6 -1 13 -4 18 -5 4 -1 12 -3 17 -5 6 -1 12 -3 15 -4 3 -1 16 -4
30 -7 14 -2 34 -8 45 -13 11 -5 36 -14 55 -21 19 -7 44 -16 55 -21 11 -4 46
-19 77 -33 31 -13 59 -22 62 -18 3 3 6 0 6 -6 0 -7 6 -12 14 -12 7 0 19 -6 26
-14 6 -8 18 -12 26 -9 8 3 14 1 14 -5 0 -5 11 -13 25 -16 14 -4 25 -11 25 -16
0 -6 9 -10 20 -10 11 0 20 -4 20 -8 0 -12 109 -66 117 -59 6 7 5 614 -3 1872
-2 413 -4 757 -4 765 1 23 1 83 1 105 0 11 0 38 0 60 0 22 0 49 0 60 0 11 0
38 0 60 0 22 0 49 0 60 0 11 0 38 0 60 0 22 0 49 0 60 0 11 0 38 0 60 0 22 0
49 0 60 0 11 0 38 0 60 0 22 0 49 0 60 0 11 0 38 0 60 0 22 0 49 0 60 0 11 0
38 0 60 0 22 0 49 0 60 0 11 0 38 0 60 0 22 0 49 0 60 0 11 0 38 0 60 0 22 0
49 0 60 0 11 0 38 0 60 0 22 0 49 0 60 -1 11 0 43 0 70 2 99 16 90 -133 90
-83 0 -136 -4 -143 -11z"/>
<path d="M9275 7740 c3 -5 8 -10 11 -10 2 0 4 5 4 10 0 6 -5 10 -11 10 -5 0
-7 -4 -4 -10z"/>
<path d="M9294 7704 c3 -9 6 -18 6 -20 0 -2 4 -4 9 -4 5 0 7 9 4 20 -3 11 -10
20 -15 20 -6 0 -7 -7 -4 -16z"/>
<path d="M9318 7663 c6 -2 12 -13 12 -24 0 -10 5 -19 10 -19 13 0 13 6 0 31
-6 10 -16 19 -23 18 -9 0 -9 -2 1 -6z"/>
<path d="M6656 3991 c-4 -7 -5 -15 -2 -18 9 -9 19 4 14 18 -4 11 -6 11 -12 0z"/>
<path d="M4815 3970 c3 -5 8 -10 11 -10 2 0 4 5 4 10 0 6 -5 10 -11 10 -5 0
-7 -4 -4 -10z"/>
<path d="M5088 3953 c6 -2 9 -10 6 -15 -4 -7 -2 -8 4 -4 18 11 14 26 -5 25
-11 0 -13 -3 -5 -6z"/>
</g>
</svg>
